<svg xmlns="http://www.w3.org/2000/svg" width="329.24" height="110.288" viewBox="0 0 329.24 110.288">
  <g id="Group_12" data-name="Group 12" transform="translate(-62.771 -600)">
    <g id="Group_1" data-name="Group 1" transform="translate(62.77 600)">
      <rect id="Rectangle_4" data-name="Rectangle 4" width="31.194" height="31.194" transform="translate(44.115 22.058) rotate(45)" fill="#007ae1" opacity="0.6"/>
      <path id="Rectangle_11" data-name="Rectangle 11" d="M0,0H31.194V31.194H4a4,4,0,0,1-4-4Z" transform="translate(22.058 44.115) rotate(45)" fill="#007ae1" opacity="0.8"/>
      <rect id="Rectangle_7" data-name="Rectangle 7" width="31.194" height="31.194" transform="translate(88.23 22.058) rotate(45)" fill="#007ae1" opacity="0.6"/>
      <rect id="Rectangle_9" data-name="Rectangle 9" width="31.194" height="31.194" transform="translate(66.172 44.115) rotate(45)" fill="#007ae1" opacity="0.8"/>
      <path id="Rectangle_13" data-name="Rectangle 13" d="M0,0H31.194V27.194a4,4,0,0,1-4,4H0Z" transform="translate(88.23 66.173) rotate(45)" fill="#007ae1"/>
      <path id="Rectangle_14" data-name="Rectangle 14" d="M0,0H31.194V27.194a4,4,0,0,1-4,4H0Z" transform="translate(44.115 66.173) rotate(45)" fill="#007ae1"/>
      <path id="Rectangle_15" data-name="Rectangle 15" d="M0,0H31.194V27.194a4,4,0,0,1-4,4H0Z" transform="translate(132.345 66.173) rotate(45)" fill="#007ae1"/>
      <rect id="Rectangle_10" data-name="Rectangle 10" width="31.194" height="31.194" transform="translate(110.287 44.115) rotate(45)" fill="#007ae1" opacity="0.8"/>
      <path id="Rectangle_12" data-name="Rectangle 12" d="M0,0H27.194a4,4,0,0,1,4,4V31.194H0Z" transform="translate(154.402 44.115) rotate(45)" fill="#007ae1" opacity="0.8"/>
      <rect id="Rectangle_8" data-name="Rectangle 8" width="31.194" height="31.194" transform="translate(132.345 22.058) rotate(45)" fill="#007ae1" opacity="0.6"/>
      <path id="Rectangle_5" data-name="Rectangle 5" d="M3,0H31.194V31.194H0V3A3,3,0,0,1,3,0Z" transform="translate(66.172) rotate(45)" fill="#007ae1" opacity="0.5"/>
      <path id="Rectangle_6" data-name="Rectangle 6" d="M3,0H31.194V31.194H0V3A3,3,0,0,1,3,0Z" transform="translate(110.287) rotate(45)" fill="#007ae1" opacity="0.5"/>
    </g>
    <path id="Path_295" data-name="Path 295" d="M19.36-12.32,40.8-46.08V-56H3.2v12.32H24.24L2.8-9.92V0H41.2V-12.32ZM75.04-40v3.76c-2.64-3.04-6.56-4.88-11.92-4.88C52.64-41.12,44-31.92,44-20S52.64,1.12,63.12,1.12c5.36,0,9.28-1.84,11.92-4.88V0h12V-40ZM65.52-10.24C60-10.24,56-14,56-20s4-9.76,9.52-9.76S75.04-26,75.04-20,71.04-10.24,65.52-10.24ZM134.24,0,119.28-20l14.56-20h-14l-12,17.52V-56h-12V0h12V-17.68L120.64,0Z" transform="translate(257.771 688)"/>
  </g>
</svg>
