<!DOCTYPE svg PUBLIC "-//W3C//DTD SVG 1.1//EN" "http://www.w3.org/Graphics/SVG/1.1/DTD/svg11.dtd">
<!-- Uploaded to: SVG Repo, www.svgrepo.com, Transformed by: SVG Repo Mixer Tools -->
<svg height="80px" width="80px" version="1.1" id="Layer_1" xmlns="http://www.w3.org/2000/svg" xmlns:xlink="http://www.w3.org/1999/xlink" viewBox="0 0 508 508" xml:space="preserve" fill="#000000">
<g id="SVGRepo_bgCarrier" stroke-width="0"/>
<g id="SVGRepo_tracerCarrier" stroke-linecap="round" stroke-linejoin="round"/>
<g id="SVGRepo_iconCarrier"> <circle style="fill:#3293FC;" cx="254" cy="254" r="254"/> <g> <circle style="fill:#FFFFFF;" cx="130.8" cy="262.4" r="24.4"/> <path style="fill:#FFFFFF;" d="M190.4,354.8c0-32.8-26.4-59.2-59.2-59.2l0,0l0,0l0,0l0,0C98.4,295.6,72,322,72,354.8V368 c17.2,6.8,37.2,10.4,59.2,10.4l0,0l0,0l0,0l0,0c22,0,42.4-4,59.2-10.4V354.8z"/> <circle style="fill:#FFFFFF;" cx="377.2" cy="262.4" r="24.4"/> <path style="fill:#FFFFFF;" d="M436.4,354.8c0-32.8-26.4-59.2-59.2-59.2l0,0l0,0l0,0l0,0c-32.8,0-59.2,26.4-59.2,59.2V368 c17.2,6.8,37.2,10.4,59.2,10.4l0,0l0,0l0,0l0,0c22,0,42.4-4,59.2-10.4V354.8z"/> <circle style="fill:#FFFFFF;" cx="254" cy="84.4" r="24.4"/> <path style="fill:#FFFFFF;" d="M313.2,176.8c0-32.8-26.4-59.2-59.2-59.2l0,0l0,0l0,0l0,0c-32.8,0-59.2,26.4-59.2,59.2V190 c17.2,6.8,37.2,10.4,59.2,10.4l0,0l0,0l0,0l0,0c22,0,42.4-4,59.2-10.4V176.8z"/> </g> <path style="fill:#324A5E;" d="M293.2,287.2l-34.4-26v-36.8c0-5.2-4-9.2-9.2-9.2s-9.2,4-9.2,9.2v36.8l-34.4,26 c-4,3.2-4.8,8.8-1.6,13.2c3.2,4,8.8,4.8,13.2,1.6l32.4-24.4l32.4,24.4c6.8,5.2,11.2,0.8,13.2-1.6 C298.4,296.4,297.6,290.4,293.2,287.2z"/> </g>
</svg>